<svg width="24" height="24" viewBox="0 0 24 24" fill="none" xmlns="http://www.w3.org/2000/svg">
<path d="M10.7778 2.375H13.2222C13.6833 2.375 14.0694 2.75771 14.0694 3.25V5.75C14.0694 6.24229 13.6833 6.625 13.2222 6.625H10.7778C10.3167 6.625 9.93056 6.24229 9.93056 5.75V3.25C9.93056 2.75771 10.3167 2.375 10.7778 2.375ZM3.44444 4.875H7.95833V6.375C7.95833 7.60927 8.93951 8.625 10.1667 8.625H13.8333C15.0605 8.625 16.0417 7.60927 16.0417 6.375V4.875H20.5556C21.6888 4.875 22.625 5.82021 22.625 7V19.5C22.625 20.6798 21.6888 21.625 20.5556 21.625H3.44444C2.31119 21.625 1.375 20.6798 1.375 19.5V7C1.375 5.82021 2.31119 4.875 3.44444 4.875ZM7.34722 19.082C7.34722 19.5116 7.69055 19.875 8.1309 19.875H15.8691C16.3095 19.875 16.6528 19.5116 16.6528 19.082C16.6528 17.7301 15.5795 16.625 14.242 16.625H9.75799C8.41579 16.625 7.34722 17.7349 7.34722 19.082ZM12 16.125C13.5633 16.125 14.8194 14.828 14.8194 13.25C14.8194 11.672 13.5633 10.375 12 10.375C10.4367 10.375 9.18056 11.672 9.18056 13.25C9.18056 14.828 10.4367 16.125 12 16.125Z" stroke="white" stroke-width="0.75"/>
</svg>
