<svg width="24" height="24" viewBox="0 0 24 24" fill="none" xmlns="http://www.w3.org/2000/svg">
<path d="M13.875 5.90625C13.6163 5.90625 13.4062 6.11625 13.4062 6.375C13.4062 6.63375 13.6163 6.84375 13.875 6.84375C14.1338 6.84375 14.3438 6.63375 14.3438 6.375C14.3438 6.11625 14.1338 5.90625 13.875 5.90625Z" fill="white"/>
<path d="M23.5312 3.09375H0.46875C0.209859 3.09375 0 3.30366 0 3.5625V6.375C0 7.6042 0.951328 8.61464 2.15625 8.71059V11.0625C2.15625 14.6971 4.12908 17.8832 7.0777 19.5889L7.08877 19.5952C7.0889 19.5953 7.08904 19.5953 7.08919 19.5954C8.57578 20.4529 10.2735 20.9062 12 20.9062C13.7867 20.9062 15.4921 20.4195 16.9223 19.5889L16.9222 19.5889C18.3915 18.739 19.6238 17.5168 20.4859 16.0544C21.3742 14.5474 21.8438 12.8212 21.8438 11.0625V8.71059C23.0487 8.61469 24 7.6042 24 6.375V3.5625C24 3.30366 23.7901 3.09375 23.5312 3.09375ZM16.2188 18.9077C14.9289 19.6024 13.4763 19.9688 12 19.9688C10.5237 19.9688 9.07111 19.6024 7.78125 18.9077V14.8125C7.78125 12.4863 9.67378 10.5938 12 10.5938C14.3262 10.5938 16.2188 12.4863 16.2188 14.8125V18.9077ZM20.9062 11.0625C20.9062 13.9519 19.4878 16.6633 17.1562 18.324V14.8125C17.1562 11.9693 14.8432 9.65625 12 9.65625C9.15684 9.65625 6.84375 11.9693 6.84375 14.8125V18.324C4.51219 16.6633 3.09375 13.9519 3.09375 11.0625V8.71875H20.9062V11.0625ZM23.0625 5.90625H15.75C15.4911 5.90625 15.2812 6.11616 15.2812 6.375C15.2812 6.63384 15.4911 6.83906 15.75 6.83906H22.9819C22.7884 7.38464 22.2673 7.78125 21.6562 7.78125H2.34375C1.56834 7.78125 0.9375 7.15041 0.9375 6.375V4.03125H23.0625V5.90625Z" fill="white"/>
<path d="M12 11.5312C10.1907 11.5312 8.71875 13.0032 8.71875 14.8125C8.71875 16.6218 10.1907 18.0938 12 18.0938C13.8093 18.0938 15.2812 16.6218 15.2812 14.8125C15.2812 13.0032 13.8093 11.5312 12 11.5312ZM12 17.1562C10.7077 17.1562 9.65625 16.1048 9.65625 14.8125C9.65625 13.5202 10.7077 12.4688 12 12.4688C13.2923 12.4688 14.3438 13.5202 14.3438 14.8125C14.3438 16.1048 13.2923 17.1562 12 17.1562Z" fill="white"/>
<path d="M12 13.4062C11.2246 13.4062 10.5938 14.0371 10.5938 14.8125C10.5938 15.5879 11.2246 16.2188 12 16.2188C12.7754 16.2188 13.4062 15.5879 13.4062 14.8125C13.4062 14.0371 12.7754 13.4062 12 13.4062ZM12 15.2812C11.7415 15.2812 11.5312 15.071 11.5312 14.8125C11.5312 14.554 11.7415 14.3438 12 14.3438C12.2585 14.3438 12.4688 14.554 12.4688 14.8125C12.4688 15.071 12.2585 15.2812 12 15.2812Z" fill="white"/>
</svg>
