<svg width="24" height="24" viewBox="0 0 24 24" fill="none" xmlns="http://www.w3.org/2000/svg">
<g clip-path="url(#clip0_406_69)">
<path d="M24 15.075V18.675C24 19.7778 23.1028 20.675 22 20.675H2C0.8972 20.675 0 19.7778 0 18.675V15.075C0 13.9722 0.8972 13.075 2 13.075H2.8V2.75C2.8 1.9367 3.4617 1.275 4.275 1.275C5.0883 1.275 5.75 1.9367 5.75 2.75V11.975C5.75 12.0811 5.70786 12.1828 5.63284 12.2578C5.55783 12.3329 5.45609 12.375 5.35 12.375C5.24391 12.375 5.14217 12.3329 5.06716 12.2578C4.99214 12.1828 4.95 12.0811 4.95 11.975V2.75C4.95 2.3778 4.6472 2.075 4.275 2.075C3.9028 2.075 3.6 2.3778 3.6 2.75V13.075H15.7833C15.8894 13.075 15.9912 13.1171 16.0662 13.1922C16.1412 13.2672 16.1833 13.3689 16.1833 13.475C16.1833 13.5811 16.1412 13.6828 16.0662 13.7578C15.9912 13.8329 15.8894 13.875 15.7833 13.875H2C1.33835 13.875 0.8 14.4133 0.8 15.075V18.675C0.8 19.3367 1.33835 19.875 2 19.875H22C22.6616 19.875 23.2 19.3367 23.2 18.675V15.075C23.2 14.4133 22.6616 13.875 22 13.875H18.65C18.5439 13.875 18.4422 13.8329 18.3672 13.7578C18.2921 13.6828 18.25 13.5811 18.25 13.475V2.75C18.25 1.9367 18.9117 1.275 19.725 1.275C20.5383 1.275 21.2 1.9367 21.2 2.75V11.975C21.2 12.0811 21.1579 12.1828 21.0828 12.2578C21.0078 12.3329 20.9061 12.375 20.8 12.375C20.6939 12.375 20.5922 12.3329 20.5172 12.2578C20.4421 12.1828 20.4 12.0811 20.4 11.975V2.75C20.4 2.3778 20.0972 2.075 19.725 2.075C19.3528 2.075 19.05 2.3778 19.05 2.75V13.075H22C23.1028 13.075 24 13.9722 24 15.075ZM3.7 16.475C3.59391 16.475 3.49217 16.5171 3.41716 16.5922C3.34214 16.6672 3.3 16.7689 3.3 16.875C3.3 16.9811 3.34214 17.0828 3.41716 17.1578C3.49217 17.2329 3.59391 17.275 3.7 17.275H4.76665C4.87274 17.275 4.97448 17.2329 5.04949 17.1578C5.12451 17.0828 5.16665 16.9811 5.16665 16.875C5.16665 16.7689 5.12451 16.6672 5.04949 16.5922C4.97448 16.5171 4.87274 16.475 4.76665 16.475H3.7ZM6.51665 16.475C6.41056 16.475 6.30882 16.5171 6.23381 16.5922C6.15879 16.6672 6.11665 16.7689 6.11665 16.875C6.11665 16.9811 6.15879 17.0828 6.23381 17.1578C6.30882 17.2329 6.41056 17.275 6.51665 17.275H9.35C9.45609 17.275 9.55783 17.2329 9.63284 17.1578C9.70786 17.0828 9.75 16.9811 9.75 16.875C9.75 16.7689 9.70786 16.6672 9.63284 16.5922C9.55783 16.5171 9.45609 16.475 9.35 16.475H6.51665ZM5.9 21.925H3.1C2.99391 21.925 2.89217 21.9671 2.81716 22.0422C2.74214 22.1172 2.7 22.2189 2.7 22.325C2.7 22.4311 2.74214 22.5328 2.81716 22.6078C2.89217 22.6829 2.99391 22.725 3.1 22.725H5.9C6.00609 22.725 6.10783 22.6829 6.18284 22.6078C6.25786 22.5328 6.3 22.4311 6.3 22.325C6.3 22.2189 6.25786 22.1172 6.18284 22.0422C6.10783 21.9671 6.00609 21.925 5.9 21.925ZM20.9 21.925H18.1C17.9939 21.925 17.8922 21.9671 17.8172 22.0422C17.7421 22.1172 17.7 22.2189 17.7 22.325C17.7 22.4311 17.7421 22.5328 17.8172 22.6078C17.8922 22.6829 17.9939 22.725 18.1 22.725H20.9C21.0061 22.725 21.1078 22.6829 21.1828 22.6078C21.2579 22.5328 21.3 22.4311 21.3 22.325C21.3 22.2189 21.2579 22.1172 21.1828 22.0422C21.1078 21.9671 21.0061 21.925 20.9 21.925ZM12.5476 8.7787C13.0154 9.24655 12.6881 10.059 12.0172 10.059C11.3541 10.059 11.0141 9.25145 11.4868 8.7787C11.5563 8.70884 11.639 8.65345 11.73 8.61574C11.8211 8.57803 11.9187 8.55874 12.0172 8.559C12.3541 8.55905 12.5476 8.7787 12.5476 8.7787ZM13.8557 8.03625C13.8929 7.99911 13.9223 7.95502 13.9424 7.90648C13.9625 7.85795 13.9729 7.80593 13.9729 7.7534C13.9729 7.70087 13.9625 7.64885 13.9424 7.60032C13.9223 7.55179 13.8929 7.50769 13.8557 7.47055C12.8396 6.4544 11.195 6.45435 10.1788 7.47055C10.1416 7.50769 10.1121 7.55179 10.092 7.60032C10.0719 7.64885 10.0616 7.70087 10.0616 7.7534C10.0616 7.80593 10.0719 7.85795 10.092 7.90648C10.1121 7.95502 10.1416 7.99911 10.1788 8.03625C10.2538 8.11126 10.3555 8.15339 10.4616 8.15339C10.5677 8.15339 10.6694 8.11126 10.7444 8.03625C11.4479 7.33275 12.5864 7.3327 13.29 8.03625C13.3271 8.0734 13.3712 8.10286 13.4198 8.12297C13.4683 8.14307 13.5203 8.15342 13.5729 8.15342C13.6254 8.15342 13.6774 8.14307 13.7259 8.12297C13.7745 8.10286 13.8186 8.0734 13.8557 8.03625ZM9.2595 6.5513C10.7837 5.0271 13.2506 5.027 14.775 6.5513C14.8121 6.5885 14.8561 6.618 14.9047 6.63811C14.9532 6.65821 15.0053 6.66852 15.0578 6.66845C15.411 6.66845 15.5933 6.2383 15.3406 5.9856C13.5038 4.1488 10.5308 4.1486 8.69385 5.9856C8.6567 6.02274 8.62723 6.06684 8.60712 6.11537C8.58701 6.1639 8.57666 6.21592 8.57666 6.26845C8.57666 6.32098 8.58701 6.373 8.60712 6.42153C8.62723 6.47007 8.6567 6.51416 8.69385 6.5513C8.73099 6.58845 8.77508 6.61792 8.82361 6.63803C8.87213 6.65813 8.92415 6.66848 8.97668 6.66848C9.0292 6.66848 9.08122 6.65813 9.12974 6.63803C9.17827 6.61792 9.22236 6.58845 9.2595 6.5513Z" fill="white"/>
</g>
<defs>
<clipPath id="clip0_406_69">
<rect width="24" height="24" fill="white"/>
</clipPath>
</defs>
</svg>
