<svg width="24" height="24" viewBox="0 0 24 24" fill="none" xmlns="http://www.w3.org/2000/svg">
<g clip-path="url(#clip0_406_209)">
<mask id="mask0_406_209" style="mask-type:luminance" maskUnits="userSpaceOnUse" x="0" y="0" width="24" height="24">
<path d="M0 7.05719e-05H23.9999V24H0V7.05719e-05Z" fill="white"/>
</mask>
<g mask="url(#mask0_406_209)">
<path fill-rule="evenodd" clip-rule="evenodd" d="M0.182907 18.6667C0.182907 18.9514 0.41376 19.1823 0.698532 19.1823H23.3014C23.5862 19.1823 23.817 18.9514 23.817 18.6667V2.5802C23.817 2.29543 23.5862 2.06458 23.3014 2.06458H0.698532C0.41376 2.06458 0.182907 2.29543 0.182907 2.5802V18.6667ZM1.21416 18.151V3.09583H22.7858V18.151H1.21416Z" fill="white"/>
<path fill-rule="evenodd" clip-rule="evenodd" d="M6.01607 21.4199C6.01607 21.7046 6.24692 21.9355 6.53169 21.9355H17.4683C17.753 21.9355 17.9839 21.7046 17.9839 21.4199V18.6667C17.9839 18.3819 17.753 18.151 17.4683 18.151C17.1835 18.151 16.9526 18.3819 16.9526 18.6667V20.9042H7.04732V18.6667C7.04732 18.3819 6.81646 18.151 6.53169 18.151C6.24692 18.151 6.01607 18.3819 6.01607 18.6667V21.4199Z" fill="white"/>
<path fill-rule="evenodd" clip-rule="evenodd" d="M3.58157 21.4199C3.58157 21.7046 3.81243 21.9355 4.0972 21.9355H19.9028C20.1876 21.9355 20.4184 21.7046 20.4184 21.4199C20.4184 21.1351 20.1876 20.9042 19.9028 20.9042H4.0972C3.81243 20.9042 3.58157 21.1351 3.58157 21.4199Z" fill="white"/>
<path fill-rule="evenodd" clip-rule="evenodd" d="M9.73009 11.7087C9.93146 11.91 10.2579 11.91 10.4593 11.7087C11.3102 10.8578 12.6898 10.8578 13.5406 11.7087C13.742 11.91 14.0685 11.91 14.2698 11.7087C14.4712 11.5073 14.4712 11.1808 14.2698 10.9795C13.0162 9.72586 10.9837 9.72586 9.73009 10.9795C9.52873 11.1808 9.52873 11.5073 9.73009 11.7087Z" fill="white"/>
<path fill-rule="evenodd" clip-rule="evenodd" d="M7.92174 9.90038C8.12311 10.1017 8.44958 10.1017 8.65095 9.90038C10.5005 8.05079 13.4993 8.05079 15.3489 9.90038C15.5503 10.1017 15.8768 10.1017 16.0781 9.90038C16.2795 9.69902 16.2795 9.37254 16.0781 9.17118C13.8258 6.91885 10.1741 6.91885 7.92174 9.17118C7.72038 9.37254 7.72038 9.69902 7.92174 9.90038Z" fill="white"/>
<path d="M11.2968 16.2127C11.2968 15.8244 11.6117 15.5096 12 15.5096C12.3883 15.5096 12.7031 15.8244 12.7031 16.2127C12.7031 16.601 12.3883 16.9158 12 16.9158C11.6117 16.9158 11.2968 16.601 11.2968 16.2127Z" fill="white"/>
<path d="M11.2968 13.1692C11.2968 12.7809 11.6117 12.4661 12 12.4661C12.3883 12.4661 12.7031 12.7809 12.7031 13.1692C12.7031 13.5576 12.3883 13.8724 12 13.8724C11.6117 13.8724 11.2968 13.5576 11.2968 13.1692Z" fill="white"/>
</g>
</g>
<defs>
<clipPath id="clip0_406_209">
<rect width="24" height="24" fill="white"/>
</clipPath>
</defs>
</svg>
