<svg width="24" height="24" viewBox="0 0 24 24" fill="none" xmlns="http://www.w3.org/2000/svg">
<path d="M13.7155 20.0245C13.1514 20.1435 12.5765 20.2033 12 20.203C7.4465 20.203 3.75 16.5065 3.75 11.953C3.75 11.2635 3.19 10.703 2.5 10.703C1.81 10.703 1.25 11.2635 1.25 11.953C1.25 17.8865 6.067 22.703 12 22.703C12.7655 22.703 13.5125 22.623 14.233 22.4705C14.5501 22.3947 14.825 22.1981 14.9992 21.9226C15.1734 21.647 15.2331 21.3144 15.1657 20.9954C15.0982 20.6765 14.9088 20.3965 14.638 20.2152C14.3671 20.0338 14.0361 19.9654 13.7155 20.0245ZM13.1625 3.7845C17.1665 4.3495 20.25 7.7945 20.25 11.953C20.25 14.895 18.7065 17.4795 16.386 18.9405C16.1085 19.1185 15.9125 19.399 15.8408 19.7208C15.769 20.0426 15.8274 20.3797 16.003 20.6587C16.1787 20.9377 16.4575 21.136 16.7787 21.2104C17.0999 21.2849 17.4375 21.2293 17.718 21.056C20.7405 19.1525 22.75 15.7855 22.75 11.953C22.75 6.5335 18.73 2.0455 13.512 1.309C12.829 1.2125 12.196 1.689 12.0995 2.372C12.003 3.055 12.4795 3.688 13.1625 3.7845Z" fill="white"/>
<path d="M4.3435 8.87601C4.78373 7.7864 5.45073 6.80292 6.3002 5.99086C7.14967 5.1788 8.16218 4.55675 9.2705 4.16601C9.58332 4.05621 9.83972 3.82663 9.98327 3.5278C10.1268 3.22896 10.1458 2.88533 10.036 2.57251C9.9262 2.25968 9.69663 2.00329 9.39779 1.85973C9.09895 1.71617 8.75532 1.69721 8.4425 1.80701C6.99883 2.31597 5.67994 3.12622 4.57341 4.18396C3.46687 5.24171 2.59801 6.52274 2.0245 7.94201C1.90064 8.24952 1.90402 8.59365 2.03389 8.89868C2.16376 9.2037 2.40948 9.44465 2.717 9.56851C3.02452 9.69236 3.36864 9.68898 3.67367 9.55911C3.9787 9.42925 4.21964 9.18352 4.3435 8.87601Z" fill="#FFA523"/>
</svg>
