<svg width="24" height="24" viewBox="0 0 24 24" fill="none" xmlns="http://www.w3.org/2000/svg">
<path d="M17.4783 6.26103H14.8696C14.7312 6.26103 14.5985 6.316 14.5006 6.41384C14.4028 6.51169 14.3478 6.64439 14.3478 6.78277V9.39146C14.3478 9.52983 14.4028 9.66254 14.5006 9.76039C14.5985 9.85823 14.7312 9.9132 14.8696 9.9132H15.6522V12.1984L12.5217 13.7636V5.73929H13.8052C13.8972 5.73965 13.9876 5.71572 14.0673 5.66991C14.147 5.6241 14.2132 5.55804 14.2591 5.47842C14.3049 5.3991 14.329 5.30913 14.329 5.21755C14.329 5.12597 14.3049 5.03599 14.2591 4.95668L12.4539 1.82625C12.4084 1.74595 12.3424 1.67917 12.2627 1.6327C12.1829 1.58623 12.0923 1.56175 12 1.56175C11.9077 1.56175 11.8171 1.58623 11.7373 1.6327C11.6576 1.67917 11.5916 1.74595 11.5461 1.82625L9.74087 4.95668C9.69508 5.03599 9.67097 5.12597 9.67097 5.21755C9.67097 5.30913 9.69508 5.3991 9.74087 5.47842C9.78684 5.55804 9.85303 5.6241 9.93274 5.66991C10.0124 5.71572 10.1028 5.73965 10.1948 5.73929H11.4783V15.8402L8.34783 14.2749V11.9062C8.76817 11.7809 9.12937 11.5085 9.36536 11.1387C9.60135 10.769 9.69637 10.3267 9.63304 9.89264C9.56972 9.45861 9.35228 9.06187 9.02049 8.77497C8.6887 8.48807 8.26472 8.33019 7.82609 8.33019C7.38746 8.33019 6.96348 8.48807 6.63169 8.77497C6.2999 9.06187 6.08246 9.45861 6.01913 9.89264C5.95581 10.3267 6.05083 10.769 6.28682 11.1387C6.52281 11.5085 6.88401 11.7809 7.30435 11.9062V14.6088C7.30367 14.7061 7.33018 14.8016 7.38089 14.8845C7.43159 14.9675 7.50447 15.0347 7.59131 15.0784L11.4783 17.0088V18.3236C10.9864 18.4506 10.5578 18.7526 10.2727 19.173C9.98765 19.5934 9.86567 20.1034 9.92968 20.6073C9.99368 21.1112 10.2393 21.5744 10.6204 21.9102C11.0015 22.246 11.492 22.4313 12 22.4313C12.508 22.4313 12.9985 22.246 13.3796 21.9102C13.7607 21.5744 14.0063 21.1112 14.0703 20.6073C14.1343 20.1034 14.0124 19.5934 13.7273 19.173C13.4422 18.7526 13.0136 18.4506 12.5217 18.3236V14.9219L16.4087 12.981C16.494 12.9381 16.5658 12.8726 16.6164 12.7916C16.667 12.7106 16.6944 12.6174 16.6956 12.5219V9.9132H17.4783C17.6166 9.9132 17.7493 9.85823 17.8472 9.76039C17.945 9.66254 18 9.52983 18 9.39146V6.78277C18 6.64439 17.945 6.51169 17.8472 6.41384C17.7493 6.316 17.6166 6.26103 17.4783 6.26103ZM12 3.13059L12.9026 4.69581H11.0974L12 3.13059ZM7.04348 10.1741C7.04348 10.0193 7.08938 9.86797 7.17537 9.73927C7.26137 9.61058 7.3836 9.51027 7.5266 9.45103C7.6696 9.3918 7.82696 9.3763 7.97877 9.4065C8.13058 9.43669 8.27003 9.51123 8.37948 9.62068C8.48893 9.73013 8.56346 9.86958 8.59366 10.0214C8.62386 10.1732 8.60836 10.3306 8.54913 10.4736C8.48989 10.6166 8.38958 10.7388 8.26088 10.8248C8.13218 10.9108 7.98088 10.9567 7.82609 10.9567C7.72243 10.9567 7.61981 10.9361 7.52417 10.8961C7.42853 10.8561 7.34179 10.7976 7.26898 10.7238C7.19617 10.65 7.13874 10.5625 7.10003 10.4663C7.06132 10.3702 7.0421 10.2673 7.04348 10.1636V10.1741ZM13.0435 20.348C13.0435 20.5544 12.9823 20.7561 12.8676 20.9277C12.753 21.0993 12.59 21.233 12.3993 21.312C12.2087 21.391 11.9988 21.4117 11.7964 21.3714C11.594 21.3311 11.4081 21.2318 11.2621 21.0858C11.1162 20.9399 11.0168 20.754 10.9766 20.5515C10.9363 20.3491 10.957 20.1393 11.036 19.9487C11.1149 19.758 11.2487 19.595 11.4203 19.4804C11.5919 19.3657 11.7936 19.3045 12 19.3045C12.2767 19.3045 12.5422 19.4144 12.7378 19.6101C12.9335 19.8058 13.0435 20.0712 13.0435 20.348ZM16.9565 8.86972H15.3913V7.3045H16.9565V8.86972Z" fill="white"/>
</svg>
