<svg width="24" height="24" viewBox="0 0 24 24" fill="none" xmlns="http://www.w3.org/2000/svg">
<path d="M12 22.75C10.9318 22.7502 9.86968 22.5884 8.85 22.27C8.74963 22.2468 8.65512 22.2032 8.57234 22.1419C8.48957 22.0806 8.42031 22.0029 8.36889 21.9136C8.31747 21.8244 8.28498 21.7255 8.27346 21.6231C8.26194 21.5208 8.27163 21.4171 8.30192 21.3187C8.33221 21.2202 8.38246 21.1291 8.44953 21.0509C8.51661 20.9727 8.59907 20.9092 8.69177 20.8643C8.78447 20.8194 8.88543 20.794 8.98836 20.7898C9.09128 20.7857 9.19396 20.8027 9.29 20.84C11.3513 21.4834 13.5722 21.3895 15.5719 20.5744C17.5715 19.7592 19.2251 18.2736 20.2491 16.3725C21.2731 14.4713 21.6035 12.2731 21.1838 10.1549C20.7641 8.03667 19.6204 6.13054 17.9488 4.76347C16.2773 3.39641 14.1821 2.65362 12.0227 2.66255C9.86338 2.67147 7.77442 3.43154 6.11423 4.81238C4.45404 6.19321 3.3261 8.10873 2.92391 10.2303C2.52172 12.3519 2.87035 14.5474 3.91 16.44C4.02266 16.6441 4.09391 16.8684 4.11965 17.1C4.14539 17.3317 4.12512 17.5662 4.06 17.79L3.26 20.44C3.24747 20.4833 3.24642 20.5291 3.25694 20.5729C3.26746 20.6168 3.28919 20.6571 3.32 20.69C3.35169 20.7227 3.39202 20.7457 3.43629 20.7563C3.48055 20.7669 3.52693 20.7647 3.57 20.75L6.63 19.83C6.82096 19.773 7.02674 19.7941 7.20209 19.8889C7.37744 19.9836 7.50798 20.144 7.565 20.335C7.62202 20.526 7.60085 20.7317 7.50615 20.9071C7.41144 21.0824 7.25096 21.213 7.06 21.27L4 22.19C3.69553 22.2845 3.37104 22.294 3.06156 22.2175C2.75208 22.141 2.46937 21.9815 2.24395 21.756C2.01854 21.5306 1.85897 21.2479 1.7825 20.9384C1.70602 20.629 1.71553 20.3045 1.81 20L2.61 17.35C2.6232 17.3183 2.63 17.2843 2.63 17.25C2.63 17.2157 2.6232 17.1817 2.61 17.15C1.52789 15.1678 1.09753 12.8951 1.38 10.6545C1.66247 8.41385 2.64341 6.31909 4.18363 4.66746C5.72385 3.01582 7.74511 1.8912 9.96058 1.45318C12.1761 1.01517 14.4732 1.286 16.5261 2.22726C18.5789 3.16852 20.2832 4.73238 21.3971 6.69694C22.5109 8.6615 22.9778 10.927 22.7314 13.1718C22.485 15.4167 21.5379 17.527 20.0245 19.2032C18.511 20.8794 16.5081 22.0364 14.3 22.51C13.5435 22.6682 12.7728 22.7487 12 22.75Z" fill="white"/>
<path d="M12 9.75C11.555 9.75 11.12 9.61804 10.75 9.37081C10.38 9.12358 10.0916 8.77217 9.92127 8.36104C9.75098 7.9499 9.70642 7.49751 9.79323 7.06105C9.88005 6.62459 10.0943 6.22368 10.409 5.90901C10.7237 5.59434 11.1246 5.38005 11.561 5.29323C11.9975 5.20642 12.4499 5.25097 12.861 5.42127C13.2722 5.59157 13.6236 5.87996 13.8708 6.24997C14.118 6.61998 14.25 7.05499 14.25 7.5C14.25 8.09674 14.0129 8.66903 13.591 9.09099C13.169 9.51295 12.5967 9.75 12 9.75ZM12 6.75C11.8517 6.75 11.7067 6.79399 11.5833 6.8764C11.46 6.95881 11.3639 7.07594 11.3071 7.21299C11.2503 7.35003 11.2355 7.50083 11.2644 7.64632C11.2934 7.79181 11.3648 7.92544 11.4697 8.03033C11.5746 8.13522 11.7082 8.20665 11.8537 8.23559C11.9992 8.26453 12.15 8.24968 12.287 8.19291C12.4241 8.13615 12.5412 8.04002 12.6236 7.91668C12.706 7.79334 12.75 7.64834 12.75 7.5C12.7474 7.30189 12.6676 7.11263 12.5275 6.97254C12.3874 6.83244 12.1981 6.75259 12 6.75ZM12 18.75C11.4033 18.75 10.831 18.5129 10.409 18.091C9.98705 17.669 9.75 17.0967 9.75 16.5V12.5C9.75 11.9033 9.98705 11.331 10.409 10.909C10.831 10.4871 11.4033 10.25 12 10.25C12.5967 10.25 13.169 10.4871 13.591 10.909C14.0129 11.331 14.25 11.9033 14.25 12.5V16.5C14.25 17.0967 14.0129 17.669 13.591 18.091C13.169 18.5129 12.5967 18.75 12 18.75ZM12 11.75C11.8019 11.7526 11.6126 11.8324 11.4725 11.9725C11.3324 12.1126 11.2526 12.3019 11.25 12.5V16.5C11.25 16.6989 11.329 16.8897 11.4697 17.0303C11.6103 17.171 11.8011 17.25 12 17.25C12.1989 17.25 12.3897 17.171 12.5303 17.0303C12.671 16.8897 12.75 16.6989 12.75 16.5V12.5C12.7474 12.3019 12.6676 12.1126 12.5275 11.9725C12.3874 11.8324 12.1981 11.7526 12 11.75Z" fill="white"/>
</svg>
