<svg width="22" height="20" viewBox="0 0 22 20" fill="none" xmlns="http://www.w3.org/2000/svg">
<path d="M9.77778 0.375H12.2222C12.6833 0.375 13.0694 0.757711 13.0694 1.25V3.75C13.0694 4.24229 12.6833 4.625 12.2222 4.625H9.77778C9.31674 4.625 8.93056 4.24229 8.93056 3.75V1.25C8.93056 0.757711 9.31674 0.375 9.77778 0.375ZM2.44444 2.875H6.95833V4.375C6.95833 5.60927 7.93951 6.625 9.16667 6.625H12.8333C14.0605 6.625 15.0417 5.60927 15.0417 4.375V2.875H19.5556C20.6888 2.875 21.625 3.82021 21.625 5V17.5C21.625 18.6798 20.6888 19.625 19.5556 19.625H2.44444C1.31119 19.625 0.375 18.6798 0.375 17.5V5C0.375 3.82021 1.31119 2.875 2.44444 2.875ZM6.34722 17.082C6.34722 17.5116 6.69055 17.875 7.1309 17.875H14.8691C15.3095 17.875 15.6528 17.5116 15.6528 17.082C15.6528 15.7301 14.5795 14.625 13.242 14.625H8.75799C7.41579 14.625 6.34722 15.7349 6.34722 17.082ZM11 14.125C12.5633 14.125 13.8194 12.828 13.8194 11.25C13.8194 9.67198 12.5633 8.375 11 8.375C9.43673 8.375 8.18056 9.67198 8.18056 11.25C8.18056 12.828 9.43673 14.125 11 14.125Z" stroke="white" stroke-width="0.75"/>
</svg>
