<svg width="24" height="24" viewBox="0 0 24 24" fill="none" xmlns="http://www.w3.org/2000/svg">
<path d="M21.4231 4H2.57691C2.25832 4 2 4.25832 2 4.57691V7.84613H22V4.57691C22 4.25832 21.7417 4 21.4231 4ZM16.6154 7.07691H15.8462C15.5275 7.07691 15.2693 6.81859 15.2693 6.5C15.2693 6.18141 15.5276 5.92309 15.8462 5.92309H16.6154C16.934 5.92309 17.1923 6.18141 17.1923 6.5C17.1923 6.81859 16.934 7.07691 16.6154 7.07691ZM18.9231 7.07691H18.1539C17.8352 7.07691 17.577 6.81859 17.577 6.5C17.577 6.18141 17.8353 5.92309 18.1539 5.92309H18.9231C19.2417 5.92309 19.5 6.18141 19.5 6.5C19.5 6.81859 19.2417 7.07691 18.9231 7.07691Z" fill="white"/>
<path d="M12 11.3076C10.6215 11.3076 9.5 12.4291 9.5 13.8076C9.5 15.1861 10.6215 16.3076 12 16.3076C13.3785 16.3076 14.5 15.1861 14.5 13.8076C14.5 12.4291 13.3785 11.3076 12 11.3076ZM12 14.9999C11.3425 14.9999 10.8077 14.465 10.8077 13.8076C10.8077 13.1502 11.3425 12.6153 12 12.6153C12.6575 12.6153 13.1923 13.1502 13.1923 13.8076C13.1923 14.465 12.6575 14.9999 12 14.9999Z" fill="white"/>
<path d="M3.73071 9V11.5C3.73071 13.7088 4.59087 15.7854 6.15271 17.3472C7.71454 18.9091 9.79114 19.7692 11.9999 19.7692C14.2087 19.7692 16.2853 18.9091 17.8472 17.3472C19.409 15.7854 20.2692 13.7088 20.2692 11.5V9H3.73071ZM11.9999 17.4615C9.98521 17.4615 8.3461 15.8224 8.3461 13.8077C8.3461 11.793 9.98521 10.1539 11.9999 10.1539C14.0147 10.1539 15.6538 11.793 15.6538 13.8077C15.6538 15.8224 14.0147 17.4615 11.9999 17.4615Z" fill="white"/>
</svg>
