<svg width="24" height="18" viewBox="0 0 24 18" fill="none" xmlns="http://www.w3.org/2000/svg">
<path d="M23.5312 0.09375H0.46875C0.209859 0.09375 0 0.303656 0 0.5625V3.375C0 4.6042 0.951328 5.61464 2.15625 5.71059V8.0625C2.15625 11.6971 4.12908 14.8832 7.0777 16.5889L7.08877 16.5952C7.0889 16.5953 7.08904 16.5953 7.08919 16.5954C8.57578 17.4529 10.2735 17.9062 12 17.9062C13.7867 17.9062 15.4921 17.4195 16.9223 16.5889L16.9222 16.5889C18.3915 15.739 19.6238 14.5168 20.4859 13.0544C21.3742 11.5474 21.8438 9.82125 21.8438 8.0625V5.71059C23.0487 5.61469 24 4.6042 24 3.375V0.5625C24 0.303656 23.7901 0.09375 23.5312 0.09375ZM16.2188 15.9077C14.9289 16.6024 13.4763 16.9688 12 16.9688C10.5237 16.9688 9.07111 16.6024 7.78125 15.9077V11.8125C7.78125 9.48628 9.67378 7.59375 12 7.59375C14.3262 7.59375 16.2188 9.48628 16.2188 11.8125V15.9077ZM20.9062 8.0625C20.9062 10.9519 19.4878 13.6633 17.1562 15.324V11.8125C17.1562 8.96934 14.8432 6.65625 12 6.65625C9.15684 6.65625 6.84375 8.96934 6.84375 11.8125V15.324C4.51219 13.6633 3.09375 10.9519 3.09375 8.0625V5.71875H20.9062V8.0625ZM23.0625 2.90625H15.75C15.4911 2.90625 15.2812 3.11616 15.2812 3.375C15.2812 3.63384 15.4911 3.83906 15.75 3.83906H22.9819C22.7884 4.38464 22.2673 4.78125 21.6562 4.78125H2.34375C1.56834 4.78125 0.9375 4.15041 0.9375 3.375V1.03125H23.0625V2.90625Z" fill="white"/>
</svg>
