<svg width="24" height="24" viewBox="0 0 24 24" fill="none" xmlns="http://www.w3.org/2000/svg">
<path d="M21.2837 17.7903C20.9471 17.445 20.3921 17.4378 20.0464 17.7745L18.7961 18.9932L18.4637 18.6675C18.1187 18.3292 17.565 18.3345 17.2263 18.6799C16.8879 19.0252 16.8934 19.5786 17.2388 19.9173L18.1819 20.8417C18.5215 21.1746 19.0643 21.1755 19.4051 20.8433L21.2678 19.0278C21.6143 18.6901 21.6214 18.1367 21.2837 17.7903ZM20.7772 18.5241L18.9144 20.3396C18.8498 20.4027 18.7389 20.4026 18.6743 20.3393L17.7312 19.4149C17.7151 19.3991 17.7022 19.3803 17.6934 19.3596C17.6845 19.3388 17.6799 19.3165 17.6796 19.294C17.6794 19.2714 17.6836 19.249 17.6921 19.2281C17.7005 19.2071 17.7129 19.1881 17.7287 19.172C17.7445 19.1558 17.7633 19.143 17.7841 19.1341C17.8048 19.1253 17.8271 19.1206 17.8497 19.1204C17.8723 19.1202 17.8947 19.1244 17.9156 19.1328C17.9365 19.1413 17.9556 19.1537 17.9717 19.1695L18.5495 19.7358C18.6152 19.8001 18.7033 19.8361 18.7951 19.8362C18.887 19.8364 18.9752 19.8006 19.0411 19.7365L20.5374 18.278C20.5701 18.2463 20.614 18.2288 20.6595 18.2294C20.7051 18.2299 20.7485 18.2485 20.7804 18.2811C20.8122 18.3138 20.8296 18.3577 20.8291 18.4033C20.8285 18.4488 20.8098 18.4923 20.7772 18.5241ZM14.7601 13.2071L12.6905 11.9296C12.7109 11.8453 12.7212 11.759 12.7212 11.6723C12.7212 11.3629 12.5894 11.0663 12.3595 10.8587C12.1289 10.6502 11.8203 10.5484 11.5132 10.5796C10.9097 10.6423 10.4688 11.1814 10.5303 11.7812C10.5878 12.3452 11.0575 12.7705 11.6231 12.7705C11.8852 12.7705 12.1261 12.678 12.3151 12.5242L14.3908 13.8055C14.43 13.8298 14.4737 13.8461 14.5193 13.8535C14.5649 13.8609 14.6115 13.8592 14.6564 13.8486C14.7014 13.8379 14.7438 13.8186 14.7812 13.7915C14.8186 13.7645 14.8504 13.7303 14.8746 13.691C14.9236 13.6117 14.939 13.5161 14.9176 13.4254C14.8961 13.3346 14.8394 13.2561 14.7601 13.2071ZM11.9559 11.884C11.9551 11.8852 11.9541 11.8864 11.9533 11.8877C11.9523 11.8894 11.9515 11.8912 11.9505 11.8929C11.9143 11.9466 11.8656 11.9905 11.8085 12.0209C11.7514 12.0513 11.6878 12.0672 11.6231 12.0673C11.4197 12.0672 11.2507 11.9136 11.2298 11.7096C11.2106 11.5222 11.3412 11.3043 11.5849 11.279C11.5976 11.2777 11.6104 11.2771 11.6231 11.2771C11.7196 11.2771 11.8143 11.3136 11.888 11.3803C11.9291 11.4169 11.962 11.4619 11.9844 11.5123C12.0068 11.5626 12.0182 11.6171 12.018 11.6722C12.018 11.7473 11.9965 11.8208 11.9559 11.884Z" fill="white"/>
<path d="M20.2259 14.6136C20.3302 14.3077 20.4181 13.9965 20.4891 13.6812H22.2278C22.7892 13.6812 23.2459 13.2245 23.2459 12.6631V12.4925C23.2459 12.2983 23.0886 12.1409 22.8944 12.1409C22.8482 12.1409 22.8025 12.15 22.7598 12.1677C22.7172 12.1853 22.6784 12.2112 22.6458 12.2439C22.6131 12.2765 22.5872 12.3153 22.5695 12.3579C22.5519 12.4006 22.5428 12.4463 22.5428 12.4925V12.6631C22.5427 12.7466 22.5095 12.8267 22.4504 12.8857C22.3914 12.9448 22.3113 12.978 22.2278 12.978H20.314C20.0838 12.978 19.8832 13.1422 19.8371 13.3683C19.7572 13.7596 19.6492 14.1447 19.514 14.5206C19.514 14.5206 19.3934 14.5134 19.2543 14.5134C18.7466 14.513 18.2421 14.5944 17.7603 14.7546C20.0103 10.2988 16.7755 4.83337 11.6364 4.83337C7.88559 4.83337 4.79508 7.87261 4.78627 11.6683C4.78627 11.6696 4.78608 11.6708 4.78608 11.6722L4.78617 11.6772L4.78608 11.6837C4.78608 16.7979 10.2202 20.1063 14.7416 17.7901C14.5869 18.2644 14.5083 18.7602 14.5086 19.2591C14.5086 19.3644 14.5148 19.5056 14.5178 19.5534C14.1236 19.6986 13.719 19.8137 13.3075 19.8978C13.0815 19.944 12.9173 20.1445 12.9173 20.3747V22.2886C12.9172 22.3721 12.884 22.4522 12.825 22.5112C12.766 22.5702 12.6859 22.6034 12.6024 22.6035H10.6436C10.5601 22.6034 10.4801 22.5702 10.421 22.5112C10.362 22.4522 10.3288 22.3721 10.3287 22.2886V20.3747C10.3287 20.1445 10.1646 19.944 9.93844 19.8978C8.88825 19.6837 7.90158 19.2748 7.0058 18.6827C6.81352 18.5557 6.5557 18.5815 6.39295 18.7441L5.03939 20.0977C5.01016 20.127 4.97545 20.1502 4.93724 20.166C4.89903 20.1819 4.85807 20.19 4.81671 20.19C4.77535 20.19 4.73439 20.1819 4.69618 20.166C4.65797 20.1502 4.62326 20.127 4.59403 20.0977L3.20892 18.7126C3.17966 18.6834 3.15645 18.6486 3.14061 18.6104C3.12477 18.5722 3.11662 18.5313 3.11662 18.4899C3.11662 18.4485 3.12477 18.4076 3.14061 18.3694C3.15645 18.3311 3.17966 18.2964 3.20892 18.2672L4.56244 16.9137C4.72514 16.7509 4.75097 16.4931 4.62384 16.3006C4.03172 15.405 3.62297 14.4184 3.4088 13.3681C3.36267 13.1421 3.16214 12.978 2.93194 12.978H1.01808C0.93459 12.9779 0.85455 12.9447 0.795515 12.8857C0.736481 12.8266 0.703271 12.7466 0.703172 12.6631V10.7044C0.703259 10.6209 0.736463 10.5408 0.795499 10.4818C0.854535 10.4227 0.934582 10.3895 1.01808 10.3894H2.93203C3.16214 10.3894 3.36272 10.2254 3.40889 9.99918C3.62297 8.94918 4.03181 7.96251 4.62398 7.06664C4.75111 6.87422 4.72523 6.6164 4.56253 6.4537L3.20897 5.10009C3.17971 5.07086 3.1565 5.03615 3.14067 4.99794C3.12484 4.95973 3.11669 4.91878 3.1167 4.87742C3.1167 4.83607 3.12486 4.79512 3.1407 4.75691C3.15654 4.71871 3.17975 4.684 3.20902 4.65478L4.59413 3.26967C4.65321 3.21066 4.7333 3.17752 4.8168 3.17752C4.90031 3.17752 4.9804 3.21066 5.03948 3.26967L6.39305 4.62318C6.5558 4.78593 6.81366 4.81167 7.00608 4.68459C7.90172 4.09247 8.88834 3.68372 9.93853 3.46954C10.1646 3.42342 10.3288 3.22284 10.3288 2.99264V1.07887C10.3289 0.995384 10.3621 0.915344 10.4211 0.856309C10.4801 0.797274 10.5602 0.764064 10.6437 0.763965H12.6025C12.686 0.764064 12.7661 0.797274 12.8251 0.856309C12.8841 0.915344 12.9173 0.995384 12.9174 1.07887V2.99273C12.9174 3.22289 13.0815 3.42347 13.3077 3.46964C14.3577 3.68372 15.3443 4.09256 16.24 4.68459C16.4325 4.81195 16.6905 4.78607 16.8532 4.62328L18.2067 3.26976C18.2359 3.2405 18.2707 3.21728 18.3089 3.20144C18.3471 3.1856 18.388 3.17744 18.4294 3.17744C18.4708 3.17744 18.5117 3.1856 18.5499 3.20144C18.5881 3.21728 18.6228 3.2405 18.6521 3.26976L20.0372 4.65487C20.0665 4.6841 20.0897 4.71881 20.1055 4.75702C20.1214 4.79523 20.1295 4.83618 20.1295 4.87754C20.1295 4.91889 20.1213 4.95985 20.1055 4.99805C20.0897 5.03625 20.0665 5.07096 20.0372 5.10018L18.6836 6.45375C18.5208 6.61659 18.4951 6.8745 18.6223 7.06678C19.2144 7.96251 19.6231 8.94914 19.8373 9.99942C19.8835 10.2254 20.084 10.3895 20.3142 10.3895H22.2281C22.3116 10.3896 22.3916 10.4228 22.4506 10.4818C22.5097 10.5408 22.5429 10.6209 22.543 10.7044V10.8518C22.543 11.046 22.7003 11.2034 22.8945 11.2034C23.0887 11.2034 23.2461 11.046 23.2461 10.8518V10.7044C23.2461 10.143 22.7894 9.68629 22.228 9.68629H20.4893C20.2615 8.66925 19.8636 7.70892 19.3047 6.82711L20.5343 5.59743C20.9322 5.19951 20.9323 4.55559 20.5343 4.15762L19.1493 2.77251C18.7514 2.37468 18.1074 2.37454 17.7095 2.77251L16.4797 4.00218C15.5979 3.44325 14.6377 3.04542 13.6206 2.81751V1.07878C13.6206 0.517356 13.1639 0.0606995 12.6025 0.0606995H10.6437C10.0822 0.0606995 9.62559 0.517403 9.62559 1.07878V2.81747C8.60855 3.04532 7.64812 3.44325 6.76645 4.00214L5.53678 2.77247C5.1398 2.37553 4.49395 2.37553 4.09692 2.77247L2.71177 4.15762C2.31394 4.5555 2.3138 5.19951 2.71177 5.59739L3.94144 6.82711C3.38245 7.70901 2.98467 8.6692 2.75677 9.68629H1.01803C0.456703 9.68625 0 10.143 0 10.7044V12.6632C0 13.2246 0.456703 13.6813 1.01808 13.6813H2.75677C2.98463 14.6984 3.38255 15.6587 3.94144 16.5404L2.71177 17.7701C2.31389 18.168 2.31384 18.8119 2.71177 19.2099L4.09688 20.595C4.49484 20.9928 5.13872 20.9929 5.53673 20.595L6.76636 19.3653C7.64808 19.9242 8.60831 20.322 9.62555 20.55V22.2887C9.62555 22.8501 10.0822 23.3068 10.6436 23.3068H12.6025C13.1639 23.3068 13.6206 22.8501 13.6206 22.2887V20.5499C13.9575 20.474 14.2898 20.3788 14.6159 20.2649C15.015 22.1221 16.4985 23.5968 18.4348 23.934C18.5263 23.9494 18.6202 23.9278 18.696 23.8742C18.7717 23.8205 18.8232 23.7391 18.8391 23.6476C18.8551 23.5561 18.8342 23.4621 18.781 23.386C18.7279 23.3099 18.6468 23.2578 18.5555 23.2413C16.6043 22.9014 15.2119 21.213 15.2119 19.2591C15.2119 17.03 17.0253 15.2166 19.2544 15.2166C21.4787 15.2166 23.2969 17.0264 23.2969 19.2591C23.2969 21.173 21.938 22.839 20.0656 23.2202C19.9743 23.2388 19.894 23.293 19.8426 23.3707C19.7911 23.4485 19.7727 23.5436 19.7913 23.6349C19.83 23.8252 20.0163 23.948 20.206 23.9093C22.4044 23.4615 24.0001 21.5059 24.0001 19.2592C24 16.9753 22.3783 15.0632 20.2259 14.6136ZM17.7725 11.3206H16.9812C16.9336 10.6212 16.749 9.93795 16.4379 9.30975L17.1227 8.91436C17.5014 9.66229 17.724 10.4862 17.7725 11.3206ZM14.998 6.54126C15.6923 6.99867 16.2921 7.58198 16.7698 8.30625L16.0913 8.69798C15.7201 8.1495 15.1072 7.563 14.6055 7.221L14.998 6.54126ZM11.9745 5.54601C11.9814 5.54639 11.9883 5.54695 11.9952 5.54733C12.8046 5.59476 13.6242 5.80397 14.3895 6.18872L13.9938 6.87398C13.3625 6.56411 12.6763 6.38171 11.9745 6.33722V5.54601H11.9745ZM11.2598 5.5485L11.2715 5.54775V6.33909C10.571 6.38689 9.88682 6.57213 9.25795 6.88425L8.8928 6.25172L8.86284 6.19983C9.60907 5.82157 10.4248 5.59992 11.2598 5.5485ZM8.25473 6.55312L8.43886 6.87206L8.65017 7.23801C8.06922 7.62966 7.57003 8.13063 7.18045 8.71298L6.49547 8.3175C6.96998 7.6004 7.5607 7.01212 8.25473 6.55312ZM6.14358 8.92622L6.81858 9.31594L6.8288 9.32184C6.52238 9.94429 6.3398 10.6243 6.29184 11.3207H5.50027C5.54827 10.5089 5.75517 9.69647 6.14358 8.92622ZM5.50008 12.0354H6.29142C6.33825 12.7358 6.5182 13.4062 6.82861 14.0344L6.14311 14.4301C5.76844 13.6882 5.54939 12.872 5.50008 12.0354ZM16.5713 15.3444C16.081 15.6803 15.6582 16.1053 15.3251 16.5975C12.4912 18.7317 8.44308 18.0249 6.49003 15.0417L7.26792 14.5926C7.5443 14.433 7.6455 14.0851 7.49831 13.8006C7.15795 13.1424 6.98433 12.4284 6.98222 11.6782C6.98672 9.97828 7.90219 8.47443 9.3008 7.65947L9.30103 7.65933C10.004 7.24964 10.8073 7.032 11.6239 7.02979H11.6241L11.6364 7.02965C12.7799 7.02965 13.4823 7.41318 13.9713 7.65839C14.4577 7.90162 15.3454 8.72681 15.6539 9.33543L15.663 9.35245C16.0727 10.0571 16.2895 10.8613 16.2904 11.6783C16.2895 12.4266 16.1154 13.1417 15.7727 13.8037C15.623 14.0931 15.7256 14.4468 16.0064 14.609L16.7745 15.0524C16.7096 15.1517 16.6418 15.2491 16.5713 15.3444ZM16.438 14.0462C16.7482 13.4209 16.9332 12.7335 16.9811 12.0353H17.7725C17.7242 12.8647 17.5033 13.6899 17.1227 14.4415L16.438 14.0462Z" fill="white"/>
</svg>
