<svg width="24" height="22" viewBox="0 0 24 22" fill="none" xmlns="http://www.w3.org/2000/svg">
<path d="M24 14.075V17.675C24 18.7778 23.1028 19.675 22 19.675H2C0.8972 19.675 0 18.7778 0 17.675V14.075C0 12.9722 0.8972 12.075 2 12.075H2.8V1.75C2.8 0.936701 3.4617 0.275002 4.275 0.275002C5.0883 0.275002 5.75 0.936701 5.75 1.75V10.975C5.75 11.0811 5.70786 11.1828 5.63284 11.2578C5.55783 11.3329 5.45609 11.375 5.35 11.375C5.24391 11.375 5.14217 11.3329 5.06716 11.2578C4.99214 11.1828 4.95 11.0811 4.95 10.975V1.75C4.95 1.3778 4.6472 1.075 4.275 1.075C3.9028 1.075 3.6 1.3778 3.6 1.75V12.075H15.7833C15.8894 12.075 15.9912 12.1171 16.0662 12.1922C16.1412 12.2672 16.1833 12.3689 16.1833 12.475C16.1833 12.5811 16.1412 12.6828 16.0662 12.7578C15.9912 12.8329 15.8894 12.875 15.7833 12.875H2C1.33835 12.875 0.8 13.4133 0.8 14.075V17.675C0.8 18.3367 1.33835 18.875 2 18.875H22C22.6616 18.875 23.2 18.3367 23.2 17.675V14.075C23.2 13.4133 22.6616 12.875 22 12.875H18.65C18.5439 12.875 18.4422 12.8329 18.3672 12.7578C18.2921 12.6828 18.25 12.5811 18.25 12.475V1.75C18.25 0.936701 18.9117 0.275002 19.725 0.275002C20.5383 0.275002 21.2 0.936701 21.2 1.75V10.975C21.2 11.0811 21.1579 11.1828 21.0828 11.2578C21.0078 11.3329 20.9061 11.375 20.8 11.375C20.6939 11.375 20.5922 11.3329 20.5172 11.2578C20.4421 11.1828 20.4 11.0811 20.4 10.975V1.75C20.4 1.3778 20.0972 1.075 19.725 1.075C19.3528 1.075 19.05 1.3778 19.05 1.75V12.075H22C23.1028 12.075 24 12.9722 24 14.075ZM3.7 15.475C3.59391 15.475 3.49217 15.5171 3.41716 15.5922C3.34214 15.6672 3.3 15.7689 3.3 15.875C3.3 15.9811 3.34214 16.0828 3.41716 16.1578C3.49217 16.2329 3.59391 16.275 3.7 16.275H4.76665C4.87274 16.275 4.97448 16.2329 5.04949 16.1578C5.12451 16.0828 5.16665 15.9811 5.16665 15.875C5.16665 15.7689 5.12451 15.6672 5.04949 15.5922C4.97448 15.5171 4.87274 15.475 4.76665 15.475H3.7ZM6.51665 15.475C6.41056 15.475 6.30882 15.5171 6.23381 15.5922C6.15879 15.6672 6.11665 15.7689 6.11665 15.875C6.11665 15.9811 6.15879 16.0828 6.23381 16.1578C6.30882 16.2329 6.41056 16.275 6.51665 16.275H9.35C9.45609 16.275 9.55783 16.2329 9.63284 16.1578C9.70786 16.0828 9.75 15.9811 9.75 15.875C9.75 15.7689 9.70786 15.6672 9.63284 15.5922C9.55783 15.5171 9.45609 15.475 9.35 15.475H6.51665ZM5.9 20.925H3.1C2.99391 20.925 2.89217 20.9671 2.81716 21.0422C2.74214 21.1172 2.7 21.2189 2.7 21.325C2.7 21.4311 2.74214 21.5328 2.81716 21.6078C2.89217 21.6829 2.99391 21.725 3.1 21.725H5.9C6.00609 21.725 6.10783 21.6829 6.18284 21.6078C6.25786 21.5328 6.3 21.4311 6.3 21.325C6.3 21.2189 6.25786 21.1172 6.18284 21.0422C6.10783 20.9671 6.00609 20.925 5.9 20.925ZM20.9 20.925H18.1C17.9939 20.925 17.8922 20.9671 17.8172 21.0422C17.7421 21.1172 17.7 21.2189 17.7 21.325C17.7 21.4311 17.7421 21.5328 17.8172 21.6078C17.8922 21.6829 17.9939 21.725 18.1 21.725H20.9C21.0061 21.725 21.1078 21.6829 21.1828 21.6078C21.2579 21.5328 21.3 21.4311 21.3 21.325C21.3 21.2189 21.2579 21.1172 21.1828 21.0422C21.1078 20.9671 21.0061 20.925 20.9 20.925ZM12.5476 7.7787C13.0154 8.24655 12.6881 9.059 12.0172 9.059C11.3541 9.059 11.0141 8.25145 11.4868 7.7787C11.5563 7.70884 11.639 7.65345 11.73 7.61574C11.8211 7.57803 11.9187 7.55874 12.0172 7.559C12.3541 7.55905 12.5476 7.7787 12.5476 7.7787ZM13.8557 7.03625C13.8929 6.99911 13.9223 6.95502 13.9424 6.90648C13.9625 6.85795 13.9729 6.80593 13.9729 6.7534C13.9729 6.70087 13.9625 6.64885 13.9424 6.60032C13.9223 6.55179 13.8929 6.50769 13.8557 6.47055C12.8396 5.4544 11.195 5.45435 10.1788 6.47055C10.1416 6.50769 10.1121 6.55179 10.092 6.60032C10.0719 6.64885 10.0616 6.70087 10.0616 6.7534C10.0616 6.80593 10.0719 6.85795 10.092 6.90648C10.1121 6.95502 10.1416 6.99911 10.1788 7.03625C10.2538 7.11126 10.3555 7.15339 10.4616 7.15339C10.5677 7.15339 10.6694 7.11126 10.7444 7.03625C11.4479 6.33275 12.5864 6.3327 13.29 7.03625C13.3271 7.0734 13.3712 7.10286 13.4198 7.12297C13.4683 7.14307 13.5203 7.15342 13.5729 7.15342C13.6254 7.15342 13.6774 7.14307 13.7259 7.12297C13.7745 7.10286 13.8186 7.0734 13.8557 7.03625ZM9.2595 5.5513C10.7837 4.0271 13.2506 4.027 14.775 5.5513C14.8121 5.5885 14.8561 5.618 14.9047 5.63811C14.9532 5.65821 15.0053 5.66852 15.0578 5.66845C15.411 5.66845 15.5933 5.2383 15.3406 4.9856C13.5038 3.1488 10.5308 3.1486 8.69385 4.9856C8.6567 5.02274 8.62723 5.06684 8.60712 5.11537C8.58701 5.1639 8.57666 5.21592 8.57666 5.26845C8.57666 5.32098 8.58701 5.373 8.60712 5.42153C8.62723 5.47007 8.6567 5.51416 8.69385 5.5513C8.73099 5.58845 8.77508 5.61792 8.82361 5.63803C8.87213 5.65813 8.92415 5.66848 8.97668 5.66848C9.0292 5.66848 9.08122 5.65813 9.12974 5.63803C9.17827 5.61792 9.22236 5.58845 9.2595 5.5513Z" fill="white"/>
</svg>
