<svg width="24" height="20" viewBox="0 0 24 20" fill="none" xmlns="http://www.w3.org/2000/svg">
<path fill-rule="evenodd" clip-rule="evenodd" d="M0.182907 16.6667C0.182907 16.9514 0.41376 17.1823 0.698532 17.1823H23.3014C23.5862 17.1823 23.817 16.9514 23.817 16.6667V0.580202C23.817 0.295431 23.5862 0.0645771 23.3014 0.0645771H0.698532C0.41376 0.0645771 0.182907 0.295431 0.182907 0.580202V16.6667ZM1.21416 16.151V1.09583H22.7858V16.151H1.21416Z" fill="white"/>
<path fill-rule="evenodd" clip-rule="evenodd" d="M6.01607 19.4199C6.01607 19.7046 6.24692 19.9355 6.53169 19.9355H17.4683C17.753 19.9355 17.9839 19.7046 17.9839 19.4199V16.6667C17.9839 16.3819 17.753 16.151 17.4683 16.151C17.1835 16.151 16.9526 16.3819 16.9526 16.6667V18.9042H7.04732V16.6667C7.04732 16.3819 6.81646 16.151 6.53169 16.151C6.24692 16.151 6.01607 16.3819 6.01607 16.6667V19.4199Z" fill="white"/>
<path fill-rule="evenodd" clip-rule="evenodd" d="M3.58157 19.4199C3.58157 19.7046 3.81243 19.9355 4.0972 19.9355H19.9028C20.1876 19.9355 20.4184 19.7046 20.4184 19.4199C20.4184 19.1351 20.1876 18.9042 19.9028 18.9042H4.0972C3.81243 18.9042 3.58157 19.1351 3.58157 19.4199Z" fill="white"/>
<path fill-rule="evenodd" clip-rule="evenodd" d="M9.73009 9.70867C9.93146 9.91004 10.2579 9.91004 10.4593 9.70867C11.3102 8.85779 12.6898 8.85779 13.5406 9.70867C13.742 9.91004 14.0685 9.91004 14.2698 9.70867C14.4712 9.50731 14.4712 9.18083 14.2698 8.97947C13.0162 7.72586 10.9837 7.72586 9.73009 8.97947C9.52873 9.18083 9.52873 9.50731 9.73009 9.70867Z" fill="white"/>
<path fill-rule="evenodd" clip-rule="evenodd" d="M7.92174 7.90038C8.12311 8.10175 8.44958 8.10175 8.65095 7.90038C10.5005 6.05079 13.4993 6.05079 15.3489 7.90038C15.5503 8.10175 15.8768 8.10175 16.0781 7.90038C16.2795 7.69902 16.2795 7.37254 16.0781 7.17118C13.8258 4.91885 10.1741 4.91885 7.92174 7.17118C7.72038 7.37254 7.72038 7.69902 7.92174 7.90038Z" fill="white"/>
<path d="M11.2968 14.2127C11.2968 13.8244 11.6117 13.5096 12 13.5096C12.3883 13.5096 12.7031 13.8244 12.7031 14.2127C12.7031 14.601 12.3883 14.9158 12 14.9158C11.6117 14.9158 11.2968 14.601 11.2968 14.2127Z" fill="white"/>
<path d="M11.2968 11.1692C11.2968 10.7809 11.6117 10.4661 12 10.4661C12.3883 10.4661 12.7031 10.7809 12.7031 11.1692C12.7031 11.5576 12.3883 11.8724 12 11.8724C11.6117 11.8724 11.2968 11.5576 11.2968 11.1692Z" fill="white"/>
</svg>
