<svg width="22" height="22" viewBox="0 0 22 22" fill="none" xmlns="http://www.w3.org/2000/svg">
<path d="M12.7155 19.0245C12.1514 19.1435 11.5765 19.2033 11 19.203C6.4465 19.203 2.75 15.5065 2.75 10.953C2.75 10.2635 2.19 9.703 1.5 9.703C0.81 9.703 0.25 10.2635 0.25 10.953C0.25 16.8865 5.067 21.703 11 21.703C11.7655 21.703 12.5125 21.623 13.233 21.4705C13.5501 21.3947 13.825 21.1981 13.9992 20.9226C14.1734 20.647 14.2331 20.3144 14.1657 19.9954C14.0982 19.6765 13.9088 19.3965 13.638 19.2152C13.3671 19.0338 13.0361 18.9654 12.7155 19.0245ZM12.1625 2.7845C16.1665 3.3495 19.25 6.7945 19.25 10.953C19.25 13.895 17.7065 16.4795 15.386 17.9405C15.1085 18.1185 14.9125 18.399 14.8408 18.7208C14.769 19.0426 14.8274 19.3797 15.003 19.6587C15.1787 19.9377 15.4575 20.136 15.7787 20.2104C16.0999 20.2849 16.4375 20.2293 16.718 20.056C19.7405 18.1525 21.75 14.7855 21.75 10.953C21.75 5.5335 17.73 1.0455 12.512 0.309002C11.829 0.212502 11.196 0.689002 11.0995 1.372C11.003 2.055 11.4795 2.688 12.1625 2.7845Z" fill="white"/>
<path d="M3.3435 7.87601C3.78373 6.7864 4.45073 5.80292 5.3002 4.99086C6.14967 4.1788 7.16218 3.55675 8.2705 3.16601C8.58332 3.05621 8.83972 2.82663 8.98327 2.5278C9.12683 2.22896 9.1458 1.88533 9.036 1.57251C8.9262 1.25968 8.69663 1.00329 8.39779 0.85973C8.09895 0.716171 7.75532 0.697205 7.4425 0.807005C5.99883 1.31597 4.67994 2.12622 3.57341 3.18396C2.46687 4.24171 1.59801 5.52274 1.0245 6.94201C0.900643 7.24952 0.904021 7.59365 1.03389 7.89868C1.16376 8.2037 1.40948 8.44465 1.717 8.56851C2.02452 8.69236 2.36864 8.68898 2.67367 8.55911C2.9787 8.42925 3.21964 8.18352 3.3435 7.87601Z" fill="#FFA523"/>
</svg>
