<svg width="12" height="22" viewBox="0 0 12 22" fill="none" xmlns="http://www.w3.org/2000/svg">
<path d="M11.4783 5.26103H8.86956C8.73119 5.26103 8.59848 5.316 8.50064 5.41384C8.40279 5.51169 8.34782 5.64439 8.34782 5.78277V8.39146C8.34782 8.52983 8.40279 8.66254 8.50064 8.76039C8.59848 8.85823 8.73119 8.9132 8.86956 8.9132H9.65217V11.1984L6.52174 12.7636V4.73929H7.80522C7.89715 4.73965 7.98755 4.71572 8.06726 4.66991C8.14697 4.6241 8.21316 4.55804 8.25913 4.47842C8.30492 4.3991 8.32903 4.30913 8.32903 4.21755C8.32903 4.12597 8.30492 4.03599 8.25913 3.95668L6.45391 0.826247C6.40841 0.745952 6.34242 0.679166 6.26268 0.6327C6.18293 0.586234 6.09229 0.561752 6 0.561752C5.90771 0.561752 5.81707 0.586234 5.73732 0.6327C5.65758 0.679166 5.59159 0.745952 5.54609 0.826247L3.74087 3.95668C3.69508 4.03599 3.67097 4.12597 3.67097 4.21755C3.67097 4.30913 3.69508 4.3991 3.74087 4.47842C3.78684 4.55804 3.85303 4.6241 3.93274 4.66991C4.01245 4.71572 4.10285 4.73965 4.19478 4.73929H5.47826V14.8402L2.34783 13.2749V10.9062C2.76817 10.7809 3.12937 10.5085 3.36536 10.1387C3.60135 9.76901 3.69637 9.32668 3.63304 8.89264C3.56972 8.45861 3.35228 8.06187 3.02049 7.77497C2.6887 7.48807 2.26472 7.33019 1.82609 7.33019C1.38746 7.33019 0.963484 7.48807 0.631691 7.77497C0.299899 8.06187 0.0824596 8.45861 0.0191347 8.89264C-0.0441902 9.32668 0.0508306 9.76901 0.286822 10.1387C0.522813 10.5085 0.884005 10.7809 1.30435 10.9062V13.6088C1.30367 13.7061 1.33018 13.8016 1.38089 13.8845C1.43159 13.9675 1.50447 14.0347 1.59131 14.0784L5.47826 16.0088V17.3236C4.98644 17.4506 4.55781 17.7526 4.27273 18.173C3.98765 18.5934 3.86567 19.1034 3.92968 19.6073C3.99368 20.1112 4.23927 20.5744 4.6204 20.9102C5.00153 21.246 5.49205 21.4313 6 21.4313C6.50795 21.4313 6.99846 21.246 7.3796 20.9102C7.76073 20.5744 8.00632 20.1112 8.07032 19.6073C8.13433 19.1034 8.01235 18.5934 7.72727 18.173C7.44218 17.7526 7.01356 17.4506 6.52174 17.3236V13.9219L10.4087 11.981C10.494 11.9381 10.5658 11.8726 10.6164 11.7916C10.667 11.7106 10.6944 11.6174 10.6956 11.5219V8.9132H11.4783C11.6166 8.9132 11.7493 8.85823 11.8472 8.76039C11.945 8.66254 12 8.52983 12 8.39146V5.78277C12 5.64439 11.945 5.51169 11.8472 5.41384C11.7493 5.316 11.6166 5.26103 11.4783 5.26103ZM6 2.13059L6.90261 3.69581H5.09739L6 2.13059ZM1.04348 9.17407C1.04348 9.01928 1.08938 8.86797 1.17537 8.73927C1.26137 8.61058 1.3836 8.51027 1.5266 8.45103C1.6696 8.3918 1.82696 8.3763 1.97877 8.4065C2.13058 8.43669 2.27003 8.51123 2.37948 8.62068C2.48893 8.73013 2.56346 8.86958 2.59366 9.02139C2.62386 9.1732 2.60836 9.33056 2.54913 9.47356C2.48989 9.61656 2.38958 9.73879 2.26088 9.82478C2.13218 9.91078 1.98088 9.95668 1.82609 9.95668C1.72243 9.95669 1.61981 9.9361 1.52417 9.89612C1.42853 9.85614 1.34179 9.79756 1.26898 9.72378C1.19617 9.65 1.13874 9.56249 1.10003 9.46633C1.06132 9.37017 1.0421 9.26728 1.04348 9.16363V9.17407ZM7.04348 19.348C7.04348 19.5544 6.98228 19.7561 6.86762 19.9277C6.75296 20.0993 6.58999 20.233 6.39932 20.312C6.20865 20.391 5.99884 20.4117 5.79643 20.3714C5.59401 20.3311 5.40808 20.2318 5.26215 20.0858C5.11622 19.9399 5.01684 19.754 4.97657 19.5515C4.93631 19.3491 4.95697 19.1393 5.03595 18.9487C5.11493 18.758 5.24868 18.595 5.42027 18.4804C5.59187 18.3657 5.79362 18.3045 6 18.3045C6.27675 18.3045 6.54216 18.4144 6.73785 18.6101C6.93354 18.8058 7.04348 19.0712 7.04348 19.348ZM10.9565 7.86972H9.3913V6.3045H10.9565V7.86972Z" fill="white"/>
</svg>
