<svg width="22" height="22" viewBox="0 0 22 22" fill="none" xmlns="http://www.w3.org/2000/svg">
<path d="M11 21.75C9.93179 21.7503 8.8697 21.5884 7.85002 21.27C7.74966 21.2468 7.65514 21.2032 7.57236 21.1419C7.48959 21.0806 7.42033 21.0029 7.36891 20.9136C7.31749 20.8244 7.285 20.7255 7.27348 20.6231C7.26196 20.5208 7.27165 20.4171 7.30194 20.3187C7.33223 20.2202 7.38248 20.1291 7.44956 20.0509C7.51663 19.9727 7.59909 19.9092 7.69179 19.8643C7.7845 19.8194 7.88546 19.794 7.98838 19.7899C8.09131 19.7857 8.19399 19.8028 8.29002 19.84C10.3513 20.4835 12.5723 20.3895 14.5719 19.5744C16.5715 18.7592 18.2251 17.2737 19.2491 15.3725C20.2731 13.4713 20.6036 11.2731 20.1838 9.15489C19.7641 7.03668 18.6204 5.13055 16.9489 3.76349C15.2773 2.39642 13.1821 1.65364 11.0228 1.66256C8.86341 1.67148 6.77445 2.43156 5.11425 3.81239C3.45406 5.19322 2.32612 7.10875 1.92393 9.23034C1.52174 11.3519 1.87038 13.5474 2.91002 15.44C3.02269 15.6441 3.09394 15.8684 3.11968 16.1001C3.14542 16.3317 3.12515 16.5662 3.06002 16.79L2.26002 19.44C2.2475 19.4833 2.24644 19.5291 2.25696 19.5729C2.26748 19.6168 2.28921 19.6571 2.32002 19.69C2.35171 19.7227 2.39205 19.7457 2.43631 19.7563C2.48058 19.7669 2.52695 19.7648 2.57002 19.75L5.63002 18.83C5.82098 18.773 6.02677 18.7942 6.20211 18.8889C6.37746 18.9836 6.508 19.1441 6.56502 19.335C6.62205 19.526 6.60087 19.7318 6.50617 19.9071C6.41146 20.0824 6.25098 20.213 6.06002 20.27L3.00002 21.19C2.69555 21.2845 2.37106 21.294 2.06158 21.2175C1.7521 21.141 1.46939 20.9815 1.24398 20.7561C1.01856 20.5306 0.858996 20.2479 0.782518 19.9385C0.70604 19.629 0.71555 19.3045 0.810023 19L1.61002 16.35C1.62323 16.3183 1.63002 16.2843 1.63002 16.25C1.63002 16.2157 1.62323 16.1817 1.61002 16.15C0.527912 14.1678 0.0975561 11.8951 0.380023 9.65449C0.662491 7.41387 1.64343 5.31911 3.18365 3.66747C4.72387 2.01584 6.74513 0.891214 8.9606 0.453197C11.1761 0.0151805 13.4732 0.286017 15.5261 1.22727C17.5789 2.16853 19.2832 3.7324 20.3971 5.69696C21.511 7.66151 21.9778 9.92697 21.7314 12.1718C21.4851 14.4167 20.5379 16.527 19.0245 18.2032C17.5111 19.8794 15.5082 21.0364 13.3 21.51C12.5435 21.6682 11.7729 21.7487 11 21.75Z" fill="#006BA8"/>
<path d="M11 8.75C10.555 8.75 10.12 8.61804 9.74997 8.37081C9.37996 8.12358 9.09157 7.77217 8.92127 7.36104C8.75098 6.9499 8.70642 6.49751 8.79323 6.06105C8.88005 5.62459 9.09434 5.22368 9.40901 4.90901C9.72368 4.59434 10.1246 4.38005 10.561 4.29323C10.9975 4.20642 11.4499 4.25097 11.861 4.42127C12.2722 4.59157 12.6236 4.87996 12.8708 5.24997C13.118 5.61998 13.25 6.05499 13.25 6.5C13.25 7.09674 13.0129 7.66903 12.591 8.09099C12.169 8.51295 11.5967 8.75 11 8.75ZM11 5.75C10.8517 5.75 10.7067 5.79399 10.5833 5.8764C10.46 5.95881 10.3639 6.07594 10.3071 6.21299C10.2503 6.35003 10.2355 6.50083 10.2644 6.64632C10.2934 6.79181 10.3648 6.92544 10.4697 7.03033C10.5746 7.13522 10.7082 7.20665 10.8537 7.23559C10.9992 7.26453 11.15 7.24968 11.287 7.19291C11.4241 7.13615 11.5412 7.04002 11.6236 6.91668C11.706 6.79334 11.75 6.64834 11.75 6.5C11.7474 6.30189 11.6676 6.11263 11.5275 5.97254C11.3874 5.83244 11.1981 5.75259 11 5.75ZM11 17.75C10.4033 17.75 9.83097 17.5129 9.40901 17.091C8.98705 16.669 8.75 16.0967 8.75 15.5V11.5C8.75 10.9033 8.98705 10.331 9.40901 9.90901C9.83097 9.48706 10.4033 9.25 11 9.25C11.5967 9.25 12.169 9.48706 12.591 9.90901C13.0129 10.331 13.25 10.9033 13.25 11.5V15.5C13.25 16.0967 13.0129 16.669 12.591 17.091C12.169 17.5129 11.5967 17.75 11 17.75ZM11 10.75C10.8019 10.7526 10.6126 10.8324 10.4725 10.9725C10.3324 11.1126 10.2526 11.3019 10.25 11.5V15.5C10.25 15.6989 10.329 15.8897 10.4697 16.0303C10.6103 16.171 10.8011 16.25 11 16.25C11.1989 16.25 11.3897 16.171 11.5303 16.0303C11.671 15.8897 11.75 15.6989 11.75 15.5V11.5C11.7474 11.3019 11.6676 11.1126 11.5275 10.9725C11.3874 10.8324 11.1981 10.7526 11 10.75Z" fill="#FFA523"/>
</svg>
